<svg width="40" height="40" viewBox="0 0 40 40" fill="none" xmlns="http://www.w3.org/2000/svg">
<path d="M36.3422 16.7358H34.9997V16.6667H19.9997V23.3333H29.4189C28.0447 27.2142 24.3522 30 19.9997 30C14.4772 30 9.99968 25.5225 9.99968 20C9.99968 14.4775 14.4772 10 19.9997 10C22.5488 10 24.868 10.9617 26.6339 12.5325L31.348 7.81834C28.3713 5.04417 24.3897 3.33334 19.9997 3.33334C10.7955 3.33334 3.33301 10.7958 3.33301 20C3.33301 29.2042 10.7955 36.6667 19.9997 36.6667C29.2038 36.6667 36.6664 29.2042 36.6664 20C36.6664 18.8825 36.5514 17.7917 36.3422 16.7358Z" fill="#FFC107"/>
<path d="M5.25439 12.2425L10.7302 16.2583C12.2119 12.59 15.8002 10 19.9994 10C22.5486 10 24.8677 10.9617 26.6336 12.5325L31.3477 7.81834C28.3711 5.04417 24.3894 3.33334 19.9994 3.33334C13.5977 3.33334 8.04606 6.9475 5.25439 12.2425Z" fill="#FF3D00"/>
<path d="M19.9996 36.6667C24.3046 36.6667 28.2163 35.0192 31.1738 32.34L26.0154 27.975C24.2859 29.2903 22.1725 30.0017 19.9996 30C15.6646 30 11.9838 27.2358 10.5971 23.3783L5.16211 27.5658C7.92044 32.9633 13.5221 36.6667 19.9996 36.6667Z" fill="#4CAF50"/>
<path d="M36.342 16.7358H34.9995V16.6667H19.9995V23.3333H29.4187C28.7614 25.1803 27.5773 26.7943 26.0128 27.9758L26.0153 27.9742L31.1737 32.3392C30.8087 32.6708 36.6662 28.3333 36.6662 20C36.6662 18.8825 36.5512 17.7917 36.342 16.7358Z" fill="#1976D2"/>
</svg>
