<svg width="28" height="28" viewBox="0 0 28 28" fill="none" xmlns="http://www.w3.org/2000/svg">
<g clip-path="url(#clip0_29_197)">
<path d="M27.9995 14C27.9995 6.26806 21.7314 0 13.9995 0C6.26757 0 -0.000488281 6.26795 -0.000488281 14C-0.000488281 20.9878 5.11914 26.7797 11.812 27.8299V18.0469H8.25732V14H11.812V10.9156C11.812 7.40688 13.9022 5.46875 17.1 5.46875C18.6318 5.46875 20.2339 5.74219 20.2339 5.74219V9.1875H18.4686C16.7293 9.1875 16.187 10.2667 16.187 11.3739V14H20.0698L19.4491 18.0469H16.187V27.8299C22.8799 26.7797 27.9995 20.9879 27.9995 14Z" fill="#1877F2"/>
<path d="M19.4491 18.0469L20.0698 14H16.187V11.3739C16.187 10.2666 16.7294 9.1875 18.4686 9.1875H20.2339V5.74219C20.2339 5.74219 18.6318 5.46875 17.1 5.46875C13.9022 5.46875 11.812 7.40688 11.812 10.9156V14H8.25732V18.0469H11.812V27.8299C12.5357 27.9433 13.267 28.0002 13.9995 28C14.732 28.0002 15.4634 27.9434 16.187 27.8299V18.0469H19.4491Z" fill="white"/>
</g>
<defs>
<clipPath id="clip0_29_197">
<rect width="28" height="28" fill="white" transform="translate(-0.000488281)"/>
</clipPath>
</defs>
</svg>
