<svg width="30" height="30" viewBox="0 0 30 30" fill="none" xmlns="http://www.w3.org/2000/svg">
<path d="M2.50049 6.5875L4.10049 5L25.0005 25.9L23.413 27.5L19.563 23.65C18.1255 24.125 16.6005 24.375 15.0005 24.375C8.75049 24.375 3.41299 20.4875 1.25049 15C2.11299 12.8 3.48799 10.8625 5.23799 9.325L2.50049 6.5875ZM15.0005 11.25C15.9951 11.25 16.9489 11.6451 17.6521 12.3483C18.3554 13.0516 18.7505 14.0054 18.7505 15C18.7511 15.4257 18.6793 15.8484 18.538 16.25L13.7505 11.4625C14.1521 11.3212 14.5748 11.2494 15.0005 11.25ZM15.0005 5.625C21.2505 5.625 26.588 9.5125 28.7505 15C27.7303 17.5915 25.9967 19.8409 23.7505 21.4875L21.9755 19.7C23.7041 18.5042 25.0982 16.8863 26.0255 15C25.0149 12.9374 23.446 11.1997 21.4971 9.98438C19.5481 8.76905 17.2973 8.12485 15.0005 8.125C13.638 8.125 12.3005 8.35 11.0505 8.75L9.12549 6.8375C10.9255 6.0625 12.913 5.625 15.0005 5.625ZM3.97549 15C4.98604 17.0626 6.55495 18.8003 8.5039 20.0156C10.4528 21.2309 12.7037 21.8752 15.0005 21.875C15.863 21.875 16.713 21.7875 17.5005 21.6125L14.6505 18.75C13.7807 18.6568 12.969 18.2686 12.3505 17.65C11.7319 17.0315 11.3437 16.2198 11.2505 15.35L7.00049 11.0875C5.76299 12.15 4.72549 13.475 3.97549 15Z" fill="white" fill-opacity="0.5"/>
</svg>
