<svg width="30" height="32" viewBox="0 0 30 32" fill="none" xmlns="http://www.w3.org/2000/svg">
<g clip-path="url(#clip0_26_10)">
<path d="M4.25 2.61126L5.85 1L26.75 22.2129L25.1625 23.8368L21.3125 19.9292C19.875 20.4113 18.35 20.665 16.75 20.665C10.5 20.665 5.1625 16.7193 3 11.1497C3.8625 8.91677 5.2375 6.95026 6.98749 5.38975L4.25 2.61126ZM16.75 7.34356C17.7445 7.34356 18.6984 7.74456 19.4016 8.45835C20.1049 9.17214 20.5 10.1402 20.5 11.1497C20.5006 11.5818 20.4287 12.0108 20.2875 12.4184L15.5 7.55924C15.9016 7.41586 16.3243 7.34292 16.75 7.34356ZM16.75 1.63436C23 1.63436 28.3375 5.58005 30.5 11.1497C29.4798 13.78 27.7462 16.0631 25.5 17.7343L23.725 15.9201C25.4536 14.7064 26.8477 13.0643 27.775 11.1497C26.7644 9.05625 25.1955 7.29252 23.2466 6.059C21.2976 4.82547 19.0468 4.17163 16.75 4.17178C15.3875 4.17178 14.05 4.40015 12.8 4.80614L10.875 2.86501C12.675 2.07841 14.6625 1.63436 16.75 1.63436ZM5.725 11.1497C6.73554 13.2432 8.30446 15.0069 10.2534 16.2404C12.2023 17.4739 14.4532 18.1278 16.75 18.1276C17.6125 18.1276 18.4625 18.0388 19.25 17.8612L16.4 14.9558C15.5302 14.8612 14.7185 14.4672 14.1 13.8394C13.4814 13.2116 13.0932 12.3878 13 11.5049L8.74999 7.17863C7.51249 8.25704 6.475 9.60187 5.725 11.1497Z" fill="white" fill-opacity="0.5"/>
</g>
<defs>
<clipPath id="clip0_26_10">
<rect width="30" height="30.4491" fill="white" transform="translate(-0.000244141 0.628754)"/>
</clipPath>
</defs>
</svg>
