<svg width="717" height="499" viewBox="0 0 717 499" fill="none" xmlns="http://www.w3.org/2000/svg">
<path d="M653.793 53.5912H511.196C503.936 53.5912 498.05 59.4768 498.05 66.737V270.647C498.05 277.907 503.936 283.793 511.196 283.793H653.793C661.053 283.793 666.939 277.907 666.939 270.647V66.737C666.939 59.4768 661.053 53.5912 653.793 53.5912Z" stroke="#CCDDE2" stroke-width="4.83" stroke-miterlimit="10"/>
<path d="M647.638 77.3073H519.079C515.449 77.3073 512.506 80.2501 512.506 83.8802V111.223C512.506 114.853 515.449 117.795 519.079 117.795H647.638C651.268 117.795 654.211 114.853 654.211 111.223V83.8802C654.211 80.2501 651.268 77.3073 647.638 77.3073Z" stroke="#CCDDE2" stroke-width="4.83" stroke-miterlimit="10"/>
<path d="M582.493 94.3622C584.806 94.3622 586.68 92.4875 586.68 90.1751C586.68 87.8627 584.806 85.988 582.493 85.988C580.181 85.988 578.306 87.8627 578.306 90.1751C578.306 92.4875 580.181 94.3622 582.493 94.3622Z" fill="white"/>
<path d="M570.794 109.122C570.794 106.019 572.027 103.043 574.222 100.849C576.415 98.6543 579.391 97.4219 582.495 97.4219C585.598 97.4219 588.574 98.6543 590.768 100.849C592.962 103.043 594.195 106.019 594.195 109.122H570.794Z" fill="white"/>
<path d="M583.349 161.191C578.889 161.193 574.529 162.517 570.82 164.996C567.112 167.475 564.223 170.998 562.517 175.12C560.811 179.241 560.365 183.776 561.237 188.151C562.108 192.525 564.256 196.543 567.411 199.697C570.566 202.851 574.585 204.998 578.96 205.868C583.335 206.738 587.87 206.29 591.99 204.582C596.111 202.875 599.633 199.985 602.111 196.275C604.59 192.566 605.912 188.206 605.912 183.746C605.912 180.783 605.328 177.849 604.194 175.113C603.06 172.375 601.399 169.888 599.303 167.794C597.208 165.7 594.721 164.038 591.983 162.905C589.246 161.772 586.312 161.189 583.349 161.191ZM583.349 200.858C582.502 200.816 581.704 200.45 581.119 199.836C580.534 199.222 580.208 198.407 580.208 197.559C580.208 196.711 580.534 195.895 581.119 195.282C581.704 194.668 582.502 194.302 583.349 194.261C584.196 194.302 584.995 194.668 585.579 195.282C586.164 195.895 586.49 196.711 586.49 197.559C586.49 198.407 586.164 199.222 585.579 199.836C584.995 200.45 584.196 200.816 583.349 200.858ZM587.513 175.49C586.817 180.38 586.233 185.515 584.771 190.271C584.424 191.417 582.275 191.417 581.927 190.271C580.898 186.696 580.106 183.056 579.557 179.377C579.107 176.699 577.543 172.362 579.036 169.763C580.355 167.393 584.068 167.156 586.225 168.372C588.871 169.865 587.829 173.057 587.513 175.49Z" fill="white"/>
<path d="M336.555 99.2943C328.647 96.9361 320.218 96.9764 312.333 99.4089C304.448 101.842 297.462 106.558 292.257 112.962C287.052 119.366 283.864 127.169 283.095 135.385C282.326 143.601 284.009 151.86 287.935 159.119C291.86 166.377 297.849 172.31 305.145 176.164C312.441 180.019 320.716 181.623 328.925 180.775C337.133 179.925 344.905 176.662 351.258 171.396C357.611 166.13 362.26 159.098 364.617 151.19C366.182 145.94 366.698 140.433 366.135 134.983C365.573 129.534 363.941 124.248 361.336 119.429C358.729 114.61 355.2 110.352 350.949 106.897C346.697 103.442 341.806 100.859 336.555 99.2943ZM315.596 169.605C314.09 169.108 312.836 168.043 312.101 166.636C311.367 165.23 311.21 163.592 311.664 162.071C312.117 160.55 313.145 159.267 314.53 158.492C315.915 157.717 317.547 157.512 319.08 157.921C319.869 158.131 320.607 158.498 321.25 158.998C321.895 159.499 322.432 160.124 322.83 160.835C323.229 161.547 323.481 162.333 323.57 163.143C323.66 163.954 323.586 164.774 323.353 165.557C323.12 166.338 322.732 167.066 322.213 167.695C321.694 168.324 321.054 168.843 320.33 169.221C319.607 169.598 318.816 169.827 318.003 169.893C317.189 169.959 316.371 169.861 315.596 169.605ZM336.374 126.834C332.558 135.137 328.797 143.93 323.733 151.585C322.517 153.434 318.701 152.296 318.693 150.084C318.758 143.209 319.286 136.347 320.273 129.544C320.889 124.575 320.408 116.058 324.429 112.235C328 108.814 334.699 110.283 337.898 113.57C341.746 117.583 338.222 122.694 336.374 126.834Z" fill="#50D1C9"/>
<path d="M220.029 191.668C217.136 194.612 215.181 198.348 214.411 202.403C213.641 206.459 214.091 210.651 215.704 214.451C217.316 218.251 220.019 221.487 223.471 223.75C226.923 226.014 230.968 227.204 235.096 227.168C239.223 227.132 243.248 225.875 246.661 223.552C250.073 221.229 252.72 217.948 254.267 214.121C255.814 210.294 256.192 206.094 255.353 202.053C254.514 198.011 252.495 194.31 249.552 191.415C245.603 187.535 240.275 185.381 234.738 185.428C229.202 185.476 223.911 187.72 220.029 191.668ZM246.21 217.399C245.93 217.685 245.596 217.912 245.227 218.069C244.858 218.226 244.462 218.308 244.061 218.312C243.661 218.315 243.263 218.24 242.892 218.09C242.521 217.941 242.183 217.719 241.897 217.438C241.611 217.158 241.383 216.824 241.227 216.455C241.07 216.086 240.987 215.69 240.983 215.289C240.98 214.889 241.055 214.491 241.205 214.12C241.355 213.749 241.577 213.411 241.857 213.125C242.424 212.547 243.197 212.219 244.006 212.211C244.815 212.204 245.593 212.519 246.171 213.085C246.748 213.652 247.076 214.425 247.084 215.234C247.091 216.043 246.777 216.821 246.21 217.399ZM232.172 198.209C234.945 201.843 237.955 205.564 240.143 209.609C240.672 210.581 239.282 211.979 238.302 211.489C235.285 209.842 232.382 207.995 229.612 205.959C227.55 204.529 223.679 202.744 222.929 200.066C222.249 197.696 224.509 195.057 226.673 194.433C229.336 193.659 230.765 196.416 232.172 198.209Z" fill="#50D1C9"/>
<path d="M526.681 135.87H636.864" stroke="#CCDDE2" stroke-width="4.83" stroke-miterlimit="10"/>
<path d="M526.681 146.717H636.864" stroke="#CCDDE2" stroke-width="4.83" stroke-miterlimit="10"/>
<path d="M526.681 216.553H636.864" stroke="#CCDDE2" stroke-width="4.83" stroke-miterlimit="10"/>
<path d="M552.268 226.817H611.266" stroke="#CCDDE2" stroke-width="4.83" stroke-miterlimit="10"/>
<path d="M666.947 202.317C676.664 214.531 685.907 229.668 694.265 248.32C745.158 361.971 681.546 419.65 681.546 419.65" stroke="#9F9F9F" stroke-width="4.83" stroke-miterlimit="10"/>
<path d="M135.386 292.437C135.386 292.437 59.8689 206.776 154.038 164.36C248.208 121.944 266.852 116.05 260.058 71.9283C253.264 27.806 306.669 -17.122 390.655 12.5667C474.641 42.2554 476.324 98.2041 470.367 141.457C466.986 166.114 480.977 172.039 498.018 170.798" stroke="#9F9F9F" stroke-width="4.83" stroke-miterlimit="10"/>
<path d="M661.621 456.616C661.429 461.345 660.206 465.975 658.035 470.181C657.949 470.39 657.849 470.593 657.734 470.789C653.927 477.63 648.6 483.506 642.163 487.964L641.934 488.122C636.124 492.008 629.589 494.682 622.721 495.982H695.829C695.829 495.982 686.049 356.506 596.161 288.644C509.173 222.978 427.73 254.626 422.563 256.743C424.164 261.262 424.88 266.047 424.673 270.837C424.673 270.837 431.214 274.242 432.304 286.432C433.394 298.622 435.67 332.513 413.794 338.896C413.794 338.896 394.155 338.414 388.964 330.878C383.774 323.341 382.526 324.874 380.487 326.785C378.907 328.231 369.372 333.398 364.971 335.768C365.528 335.795 366.08 335.871 366.623 335.997C366.623 335.997 369.143 357.264 399.977 390.595C401.021 391.695 402.008 392.85 402.932 394.055C407.587 398.126 412.82 402.281 418.629 406.521L453.816 432.268C454.61 432.943 455.552 433.422 456.566 433.666C458.534 434.162 460.592 434.181 462.57 433.722C466.662 432.932 494.605 430.08 512.688 428.278C513.099 428.278 513.533 428.199 513.936 428.152L516.306 427.923C516.686 427.923 517.096 427.844 517.428 427.82L519.561 427.615C520.604 427.512 521.544 427.409 522.413 427.338L524.783 427.109C526.877 426.904 528.117 426.777 528.22 426.777C532.528 426.655 536.822 426.238 541.073 425.529C545.142 424.739 548.855 423.467 549.819 421.358C550.001 420.913 550.069 420.429 550.016 419.952C549.798 418.609 549.237 417.347 548.389 416.286C544.676 411.301 536.049 407.027 535.417 406.719C535.399 406.713 535.38 406.713 535.361 406.719L535.188 406.593L483.837 366.697H483.782C483.782 366.697 491.516 284.188 561.993 304.491C561.993 304.491 562.325 304.72 562.933 305.226C565.682 307.343 574.333 314.359 587.052 327.465C587.384 327.82 587.739 328.176 588.095 328.555C589.446 329.93 590.773 331.36 592.092 332.758C601.019 342.301 611.582 354.46 623.235 369.62L623.314 369.699C636.665 387.079 646.287 403.006 652.544 417.1V417.147C659.314 432.465 662.166 445.588 661.605 456.055C661.623 456.242 661.628 456.429 661.621 456.616ZM449.053 314.801C446.967 290.761 458.667 282.055 459.323 281.573C442.685 311.673 473.543 357.809 474.625 359.595C473.74 358.852 451.138 338.833 449.053 314.801Z" fill="#5D6B79"/>
<path d="M404.86 310.085C403.994 310.721 403.092 311.307 402.158 311.838L396.739 302.358C409.237 295.967 412.745 284.701 407.246 278.516C405.709 276.823 403.726 275.597 401.526 274.976C395.996 273.302 392.165 275.766 389.566 279.077C387.444 281.954 385.889 285.209 384.983 288.667L382.345 258.236L382.139 255.866C382.139 255.866 376.388 253.014 360.809 255.558C345.23 258.102 342.362 266.705 335.671 262.889C328.979 259.073 325.187 259.382 325.187 259.382C323.283 266.373 318.188 266.373 318.188 266.373C316.981 266.227 315.795 265.939 314.656 265.512C307.428 258.868 305.469 247.342 305.469 247.342C313.053 246.402 313.637 239.102 312.768 233.121C316.971 235.618 322.896 235.792 331.215 230.451C355.081 215.188 379.556 223.452 388.159 224.724C391.999 225.285 396.202 223.934 399.686 222.354C400.136 223.16 400.762 223.854 401.518 224.384C407.326 228.43 412.116 233.768 415.51 239.979C437.906 281.842 413.353 304.073 404.86 310.085Z" fill="#50D1C9"/>
<path d="M315.454 495.997H324.46C328.312 495.993 332.005 494.46 334.729 491.737C337.452 489.013 338.984 485.32 338.988 481.468V471.388C338.988 470.469 338.807 469.559 338.455 468.71C338.104 467.861 337.588 467.09 336.938 466.441C336.287 465.791 335.516 465.277 334.667 464.926C333.818 464.575 332.908 464.395 331.989 464.396H278.126C278.128 466.542 277.706 468.667 276.886 470.649C276.066 472.632 274.862 474.433 273.345 475.95C271.827 477.467 270.025 478.669 268.042 479.489C266.059 480.309 263.934 480.729 261.788 480.726H67.1528C67.1552 484.775 68.7645 488.658 71.6283 491.521C74.4913 494.385 78.3742 495.994 82.4238 495.997H346.288C346.633 495.997 346.975 495.93 347.293 495.799C347.611 495.667 347.901 495.474 348.145 495.23C348.389 494.987 348.582 494.697 348.713 494.379C348.845 494.06 348.912 493.718 348.911 493.374V477.013C348.911 473.834 350.173 470.786 352.421 468.538C354.669 466.291 357.717 465.028 360.895 465.028C364.074 465.028 367.122 466.291 369.37 468.538C371.618 470.786 372.88 473.834 372.88 477.013V493.374C372.879 493.717 372.946 494.059 373.077 494.377C373.208 494.695 373.4 494.984 373.643 495.228C373.886 495.471 374.175 495.665 374.492 495.797C374.81 495.929 375.15 495.997 375.495 495.997H695.829C695.829 495.997 686.049 356.488 596.161 288.634C509.173 222.968 427.731 254.616 422.564 256.734L422.311 256.828" stroke="white" stroke-width="4.83" stroke-miterlimit="10"/>
<path d="M332.495 290.879C332.492 291.756 332.229 292.613 331.74 293.34C331.25 294.068 330.556 294.635 329.745 294.968C328.933 295.303 328.042 295.389 327.182 295.216C326.322 295.044 325.532 294.62 324.913 294C324.293 293.379 323.871 292.588 323.7 291.728C323.529 290.868 323.617 289.976 323.952 289.166C324.287 288.355 324.855 287.662 325.584 287.174C326.313 286.686 327.17 286.424 328.047 286.423C328.391 286.424 328.733 286.467 329.066 286.549C328.606 286.695 328.205 286.983 327.921 287.373C327.636 287.762 327.484 288.232 327.486 288.714C327.484 289.017 327.541 289.317 327.656 289.597C327.77 289.877 327.938 290.132 328.151 290.347C328.364 290.562 328.617 290.733 328.896 290.85C329.175 290.967 329.475 291.028 329.777 291.029C330.33 291.018 330.863 290.814 331.281 290.451C331.699 290.089 331.978 289.592 332.068 289.046C332.341 289.619 332.486 290.244 332.495 290.879Z" fill="white"/>
<path d="M363.314 292.117C363.315 292.999 363.055 293.862 362.566 294.596C362.078 295.329 361.383 295.901 360.568 296.24C359.755 296.578 358.859 296.668 357.994 296.496C357.129 296.326 356.334 295.901 355.71 295.279C355.086 294.656 354.661 293.862 354.488 292.997C354.316 292.133 354.404 291.237 354.74 290.422C355.078 289.607 355.649 288.911 356.382 288.422C357.114 287.931 357.976 287.669 358.858 287.669C359.07 287.668 359.283 287.692 359.49 287.741C359.096 287.922 358.762 288.213 358.528 288.579C358.294 288.944 358.17 289.369 358.171 289.803C358.144 290.411 358.359 291.004 358.769 291.453C359.179 291.902 359.751 292.169 360.359 292.196C360.966 292.224 361.56 292.008 362.009 291.598C362.458 291.187 362.726 290.616 362.753 290.008C363.118 290.652 363.31 291.378 363.314 292.117Z" fill="white"/>
<path d="M398.856 216.097C398.342 219.557 398.982 222.591 401.526 224.392C407.333 228.438 412.123 233.776 415.517 239.987C442.235 289.908 402.158 311.878 402.158 311.878L396.738 302.398C412.341 294.434 413.937 278.84 401.526 275.016C389.115 271.192 384.983 288.707 384.983 288.707L382.139 255.882C382.139 255.882 376.388 253.03 360.809 255.574C345.229 258.118 342.362 266.721 335.67 262.905C328.979 259.089 325.187 259.397 325.187 259.397C323.283 266.389 318.187 266.389 318.187 266.389C303.256 264.485 299.748 243.826 299.748 243.826C307.325 242.878 307.909 235.579 307.048 229.606C311.243 232.102 317.176 232.284 325.495 226.936C349.361 211.673 373.836 219.944 382.431 221.216C388.372 222.077 395.19 218.443 398.856 216.097Z" stroke="white" stroke-width="4.83" stroke-linecap="round" stroke-linejoin="round"/>
<path d="M412.633 463.654L418.535 461.284L422.959 473.221L422.264 494.884L416.283 495.966L393.586 494.986C393.586 494.986 395.166 481.777 399.993 475.497C404.82 469.216 412.633 463.654 412.633 463.654Z" fill="#50D1C9"/>
<path d="M309.292 273.689C309.292 273.689 315.336 262.842 328.055 263.972" stroke="white" stroke-width="4.83" stroke-miterlimit="10"/>
<path d="M352.964 263.969C352.964 263.969 367.5 260.706 372.588 268.788" stroke="white" stroke-width="4.83" stroke-miterlimit="10"/>
<path d="M375.487 313.078C375.487 313.078 366.797 308.046 360.437 316.507" stroke="white" stroke-width="4.83" stroke-miterlimit="10"/>
<path d="M320.574 265.71C320.574 265.71 314.388 338.478 360.517 337.135C368.417 336.906 376.27 331.715 383.775 323.365" stroke="white" stroke-width="4.83" stroke-miterlimit="10"/>
<path d="M402.158 329.984L383.774 323.363C383.774 323.363 388.333 337.931 410.911 339.045C433.49 340.159 441.066 288.342 424.476 267.494" stroke="white" stroke-width="4.83" stroke-linejoin="round"/>
<path d="M474.034 475.961C474.034 475.961 457.183 489.636 468.631 495.996" stroke="white" stroke-width="4.83" stroke-miterlimit="10"/>
<path d="M460.998 463.235C460.998 463.235 431.768 479.778 456.866 495.997" stroke="white" stroke-width="4.83" stroke-miterlimit="10"/>
<path d="M451.139 450.517C451.139 450.517 412.341 468.687 442.235 495.998" stroke="white" stroke-width="4.83" stroke-miterlimit="10"/>
<path d="M614.293 495.996C614.293 495.996 661.362 495.996 661.994 450.515C662.626 405.034 570.724 290.83 511.251 274.943C451.779 259.056 449.228 302.593 449.228 304.379C449.228 306.164 445.736 324.919 460.999 344.93C472.786 360.399 524.848 399.014 547.948 415.794C548.796 416.412 549.437 417.272 549.784 418.263C550.131 419.253 550.169 420.325 549.892 421.337C549.615 422.349 549.036 423.253 548.234 423.928C547.43 424.603 546.44 425.018 545.396 425.116L443.231 434.928H443.168C442.204 435.102 406.148 441.754 395.167 453.051C395.167 453.051 389.013 457.61 392.197 464.609C395.38 471.609 405.161 469.302 405.429 469.041" stroke="white" stroke-width="4.83" stroke-miterlimit="10"/>
<path opacity="0.26" d="M358.866 300.382C365.891 300.382 371.585 294.687 371.585 287.663C371.585 280.638 365.891 274.943 358.866 274.943C351.841 274.943 346.147 280.638 346.147 287.663C346.147 294.687 351.841 300.382 358.866 300.382Z" fill="white"/>
<path opacity="0.26" d="M326.586 299.126C333.611 299.126 339.305 293.431 339.305 286.406C339.305 279.382 333.611 273.687 326.586 273.687C319.561 273.687 313.867 279.382 313.867 286.406C313.867 293.431 319.561 299.126 326.586 299.126Z" fill="white"/>
<path d="M436.532 461.649C432.061 460.4 424.753 459.279 417.224 461.696C413.543 462.882 410.146 464.816 407.246 467.376C406.614 467.929 406.006 468.49 405.422 469.051C404.161 470.287 402.972 471.592 401.859 472.962C401.712 473.143 401.504 473.263 401.274 473.301C398.469 473.688 380.007 476.611 380.102 485.942C380.188 494.324 389.368 495.698 392.528 495.919C392.659 495.931 392.79 495.916 392.914 495.875C393.038 495.833 393.153 495.767 393.25 495.679C393.347 495.592 393.425 495.485 393.479 495.366C393.533 495.247 393.562 495.118 393.563 494.987C393.563 492.001 394.243 482.639 401.629 473.222" stroke="white" stroke-width="4.83" stroke-miterlimit="10"/>
<path d="M270.186 395.8C272.351 413.251 258.786 421.143 243.958 422.312" stroke="white" stroke-width="4.83" stroke-miterlimit="10"/>
<path d="M222.406 418.671C216.752 415.617 212.172 410.899 209.287 405.157C206.401 399.415 205.35 392.925 206.274 386.565C208.644 369.777 222.865 356.9 236.785 348.731C266.015 331.58 331.886 343.991 342.954 346.519C351.439 348.463 358.533 341.827 361.409 338.619C361.531 338.483 361.689 338.384 361.866 338.336C362.042 338.287 362.228 338.29 362.403 338.344C362.577 338.399 362.733 338.501 362.851 338.641C362.969 338.781 363.044 338.951 363.068 339.133C369.143 374.683 439.699 422.937 456.021 433.737" stroke="white" stroke-width="4.83" stroke-miterlimit="10"/>
<path d="M287.986 383.73L264.625 398.227C263.233 399.094 261.674 399.659 260.051 399.887C258.427 400.114 256.773 399.998 255.196 399.547C253.619 399.096 252.155 398.319 250.897 397.268C249.639 396.216 248.615 394.911 247.893 393.439C246.59 390.795 246.332 387.758 247.169 384.932C248.006 382.105 249.879 379.699 252.411 378.192L287.962 357.012" stroke="white" stroke-width="4.83" stroke-miterlimit="10"/>
<path d="M358.866 300.382C365.891 300.382 371.585 294.687 371.585 287.663C371.585 280.638 365.891 274.943 358.866 274.943C351.841 274.943 346.147 280.638 346.147 287.663C346.147 294.687 351.841 300.382 358.866 300.382Z" stroke="white" stroke-width="4.83" stroke-miterlimit="10"/>
<path d="M326.586 299.126C333.611 299.126 339.305 293.431 339.305 286.406C339.305 279.382 333.611 273.687 326.586 273.687C319.561 273.687 313.867 279.382 313.867 286.406C313.867 293.431 319.561 299.126 326.586 299.126Z" stroke="white" stroke-width="4.83" stroke-miterlimit="10"/>
<path d="M346.21 286.408H339.305" stroke="white" stroke-width="4.83" stroke-miterlimit="10"/>
<path d="M346.21 304.38H341.66C341.374 304.38 341.091 304.318 340.832 304.196C340.573 304.075 340.343 303.897 340.161 303.677C339.978 303.456 339.846 303.199 339.775 302.921C339.704 302.644 339.694 302.355 339.748 302.074L342.758 286.408" stroke="white" stroke-width="4.83" stroke-miterlimit="10"/>
<path d="M254.908 347.791C254.908 347.791 238.689 351.291 232.969 375.781C229.493 390.649 224.722 409.617 221.514 422.226C221.103 423.843 221.066 425.533 221.407 427.167C221.748 428.8 222.458 430.335 223.482 431.652C224.507 432.97 225.818 434.037 227.317 434.77C228.816 435.504 230.463 435.885 232.132 435.885C234.624 435.885 237.042 435.037 238.986 433.478C240.931 431.92 242.286 429.745 242.829 427.314L249.615 396.867" stroke="white" stroke-width="4.83" stroke-miterlimit="10"/>
<path d="M269.736 405.037C269.736 405.037 286.76 394.862 320.297 405.037C353.833 415.212 392.385 422.117 405.104 395.13" stroke="white" stroke-width="4.83" stroke-miterlimit="10"/>
<path d="M417.232 461.695C417.232 461.695 429.082 475.22 421.877 495.998" stroke="white" stroke-width="4.83" stroke-miterlimit="10"/>
<path d="M25.646 293.508H212.879C218.91 293.5 224.768 295.522 229.51 299.248C234.251 302.974 237.602 308.188 239.02 314.049L268.828 437.496C269.632 440.827 269.67 444.297 268.939 447.644C268.208 450.992 266.727 454.131 264.607 456.824C262.487 459.516 259.784 461.692 256.702 463.189C253.619 464.685 250.237 465.462 246.81 465.462H60.059C54.0399 465.468 48.193 463.452 43.4569 459.737C38.7211 456.022 35.3698 450.824 33.9412 444.977L3.65209 321.554C2.83419 318.219 2.78505 314.742 3.50831 311.386C4.23156 308.03 5.70833 304.882 7.82691 302.181C9.94556 299.479 12.6506 297.295 15.7376 295.792C18.8247 294.29 22.2128 293.509 25.646 293.508Z" fill="#50D1C9"/>
<path d="M32.4645 298.82H208.132C213.791 298.827 219.284 300.732 223.731 304.232C228.178 307.731 231.323 312.621 232.662 318.12L260.644 433.928C261.399 437.052 261.436 440.307 260.751 443.448C260.066 446.589 258.677 449.534 256.688 452.059C254.7 454.586 252.165 456.627 249.272 458.031C246.38 459.435 243.208 460.164 239.993 460.164H64.7523C59.1109 460.152 53.6353 458.253 49.1978 454.771C44.7595 451.287 41.6141 446.419 40.262 440.943L11.8215 325.127C11.0535 321.998 11.0072 318.736 11.6862 315.586C12.365 312.437 13.7513 309.483 15.7401 306.949C17.7289 304.415 20.2681 302.365 23.1655 300.957C26.0631 299.549 29.2429 298.817 32.4645 298.82Z" fill="#50D1C9"/>
<path d="M25.646 293.508H212.879C218.91 293.5 224.768 295.522 229.51 299.248C234.251 302.974 237.602 308.188 239.02 314.049L268.828 437.496C269.632 440.827 269.67 444.297 268.939 447.644C268.208 450.992 266.727 454.131 264.607 456.824C262.487 459.516 259.784 461.692 256.702 463.189C253.619 464.685 250.237 465.462 246.81 465.462H60.059C54.0399 465.468 48.193 463.452 43.4569 459.737C38.7211 456.022 35.3698 450.824 33.9412 444.977L3.65209 321.554C2.83419 318.219 2.78505 314.742 3.50831 311.386C4.23156 308.03 5.70833 304.882 7.82691 302.181C9.94556 299.479 12.6506 297.295 15.7376 295.792C18.8247 294.29 22.2128 293.509 25.646 293.508Z" stroke="white" stroke-width="4.83" stroke-miterlimit="10"/>
<path d="M113.338 375.734L102.175 323.696C101.943 322.595 101.34 321.607 100.467 320.899C99.5938 320.189 98.5044 319.802 97.3794 319.801H42.1417C41.3986 319.803 40.6658 319.974 39.9986 320.301C39.3314 320.628 38.7473 321.102 38.2906 321.688C37.8339 322.274 37.5165 322.957 37.3625 323.684C37.2085 324.41 37.2218 325.163 37.4016 325.884L50.3184 378.53C50.4787 379.264 50.8208 379.946 51.3138 380.513C51.7562 381.076 52.3195 381.53 52.9625 381.844C53.6056 382.157 54.3119 382.321 55.0268 382.322H55.1295L108.59 381.69C109.312 381.68 110.022 381.51 110.671 381.193C111.319 380.877 111.89 380.421 112.342 379.857C112.803 379.286 113.131 378.62 113.303 377.908C113.475 377.194 113.487 376.452 113.338 375.734ZM41.091 324.952C41.0509 324.796 41.0472 324.633 41.08 324.475C41.1129 324.318 41.1815 324.17 41.2806 324.043C41.382 323.911 41.5123 323.804 41.6616 323.73C41.8109 323.656 41.9751 323.617 42.1417 323.616H97.3794C97.6283 323.616 97.87 323.7 98.0628 323.857C98.2563 324.015 98.3883 324.234 98.438 324.478L106.939 364.113C78.5534 336.707 75.3381 368.149 75.3381 368.149C59.3166 359.807 54.6871 368.939 53.3441 374.951L41.091 324.952Z" fill="white"/>
<path d="M57.0406 343.842C60.1217 342.886 61.5832 338.802 60.3192 334.717C59.0552 330.633 55.5238 328.105 52.4191 329.061C49.3143 330.017 47.8765 334.101 49.1484 338.177C50.4203 342.254 53.9675 344.798 57.0406 343.842Z" fill="white"/>
<path d="M70.5656 342.909H88.6885C90.94 342.909 93.1994 342.909 95.451 342.909H95.7749C96.4085 342.926 97.0389 342.808 97.6235 342.561C98.0272 342.361 98.3709 342.057 98.6181 341.681C98.8662 341.304 99.0092 340.869 99.0337 340.419C99.0574 339.968 98.9618 339.52 98.7556 339.119C98.5494 338.719 98.2405 338.38 97.8605 338.137C97.4347 337.944 97.0468 337.677 96.715 337.347C96.4954 337 96.3445 336.614 96.2726 336.209C95.8539 335.066 95.0457 334.106 93.9895 333.5C93.2208 332.983 92.3565 332.627 91.4464 332.451C90.5371 332.276 89.6017 332.286 88.6964 332.481C87.8029 332.707 86.9852 333.164 86.3263 333.808C85.7654 334.361 85.6548 335.103 85.2203 335.72C84.9359 336.123 84.7542 335.996 84.3671 335.775C83.98 335.554 83.7667 335.388 83.4507 335.23C82.8274 334.896 82.1803 334.609 81.5152 334.369C80.1603 333.867 78.7154 333.655 77.2728 333.745C74.7368 333.942 72.2088 335.451 71.324 337.837C70.5269 337.848 69.759 338.143 69.1601 338.668C68.5605 339.193 68.1679 339.916 68.0533 340.705C68.0012 341.009 68.0209 341.322 68.111 341.616C68.2019 341.912 68.3607 342.181 68.5748 342.403C69.1507 342.817 69.8617 342.997 70.5656 342.909Z" fill="white"/>
<path d="M200.491 341.785L199.038 335.805C198.063 331.785 195.765 328.209 192.512 325.653C189.259 323.096 185.242 321.708 181.105 321.711H161.141C158.863 321.709 156.616 322.232 154.573 323.24C152.531 324.248 150.748 325.713 149.364 327.523C147.981 329.332 147.034 331.437 146.596 333.672C146.158 335.907 146.243 338.214 146.842 340.411L148.493 346.486C149.547 350.395 151.861 353.846 155.076 356.307C158.291 358.768 162.227 360.1 166.276 360.098H186.121C188.362 360.096 190.574 359.585 192.59 358.604C194.605 357.622 196.372 356.196 197.755 354.433C199.139 352.669 200.104 350.615 200.578 348.424C201.052 346.233 201.022 343.963 200.491 341.785ZM178.537 343.263L171.719 347.458C171.457 347.624 171.159 347.729 170.849 347.761C170.54 347.793 170.227 347.754 169.935 347.645C169.644 347.537 169.382 347.361 169.168 347.135C168.956 346.907 168.799 346.634 168.709 346.336L166.142 337.946C166.034 337.574 166.034 337.178 166.142 336.806C166.251 336.434 166.462 336.1 166.752 335.844C167.043 335.587 167.401 335.418 167.783 335.357C168.167 335.295 168.558 335.344 168.915 335.497L178.371 339.676C178.709 339.829 178.999 340.07 179.209 340.376C179.419 340.682 179.54 341.039 179.561 341.409C179.581 341.78 179.499 342.148 179.325 342.475C179.149 342.802 178.888 343.075 178.569 343.263H178.537Z" fill="white"/>
<path d="M196.036 395.506H161.109C159.51 395.504 157.947 395.036 156.608 394.161C155.27 393.286 154.216 392.041 153.572 390.577C153.373 390.126 153.266 389.64 153.256 389.147C153.265 388.194 153.648 387.283 154.325 386.612C155.001 385.94 155.914 385.562 156.867 385.56H193.997C192.252 388.515 193.136 392.599 196.036 395.506Z" fill="white"/>
<path d="M218.662 391.92C218.659 392.871 218.281 393.782 217.609 394.454C216.937 395.126 216.025 395.505 215.075 395.506H196.036C193.136 392.599 192.252 388.515 193.997 385.56H210.762C212.358 385.561 213.919 386.025 215.258 386.896C216.595 387.767 217.651 389.007 218.298 390.466C218.517 390.921 218.64 391.416 218.662 391.92Z" fill="#50D1C9"/>
<path d="M209.885 395.507C209.786 395.697 209.672 395.88 209.545 396.052C207.048 399.457 201.645 399.773 197.45 396.708C196.949 396.344 196.476 395.943 196.036 395.507C193.136 392.6 192.252 388.515 193.997 385.561C194.095 385.373 194.209 385.193 194.337 385.024C196.81 381.595 202.237 381.295 206.409 384.336C206.914 384.709 207.392 385.118 207.838 385.561C210.762 388.468 211.607 392.552 209.885 395.507Z" fill="white"/>
<path d="M227.408 413.884C227.4 414.837 227.016 415.748 226.34 416.419C225.664 417.091 224.751 417.468 223.798 417.471H85.3716C87.1412 414.5 86.2564 410.432 83.3491 407.532H219.555C221.153 407.532 222.716 407.997 224.053 408.871C225.391 409.745 226.444 410.99 227.084 412.454C227.289 412.904 227.4 413.39 227.408 413.884Z" fill="#50D1C9"/>
<path d="M85.3713 417.431H68.1253C66.5287 417.432 64.9668 416.968 63.6286 416.097C62.2911 415.226 61.2348 413.985 60.5886 412.525C60.3856 412.068 60.2781 411.572 60.2726 411.071C60.2718 410.601 60.3634 410.134 60.5436 409.699C60.7237 409.264 60.9875 408.869 61.3209 408.536C61.6543 408.203 62.0501 407.94 62.4862 407.76C62.9215 407.582 63.3884 407.491 63.8592 407.493H83.3489C86.2561 410.392 87.1409 414.461 85.3713 417.431Z" fill="white"/>
<path d="M85.3705 417.431C85.2892 417.625 85.1833 417.808 85.0545 417.976C82.5818 421.404 77.1544 421.697 72.9752 418.655C72.472 418.282 71.9964 417.873 71.5532 417.431C68.6697 414.523 67.7848 410.463 69.5071 407.492C69.6027 407.3 69.7164 407.118 69.8468 406.947C72.3432 403.542 77.7469 403.226 81.9419 406.284C82.4428 406.648 82.9128 407.052 83.3481 407.492C86.2554 410.392 87.1402 414.46 85.3705 417.431Z" fill="white"/>
<path d="M97.5844 439.165H75.6694C74.0736 439.163 72.5117 438.7 71.1742 437.828C69.8367 436.958 68.7805 435.718 68.1327 434.259C67.9154 433.818 67.7914 433.336 67.7693 432.845C67.7717 431.89 68.1517 430.976 68.8271 430.3C69.5018 429.625 70.4166 429.245 71.3717 429.242H95.5224C93.8397 432.229 94.7008 436.289 97.5844 439.165Z" fill="#50D1C9"/>
<path d="M234.92 435.634C234.908 436.582 234.52 437.486 233.841 438.148C233.163 438.81 232.25 439.176 231.302 439.165H97.5843C94.7008 436.258 93.816 432.197 95.5382 429.227H227.067C228.665 429.226 230.228 429.691 231.565 430.566C232.903 431.44 233.956 432.685 234.596 434.149C234.806 434.616 234.915 435.122 234.92 435.634Z" fill="white"/>
<path d="M111.425 439.165C111.33 439.357 111.216 439.539 111.086 439.71C108.613 443.139 103.186 443.431 99.0143 440.389C98.5087 440.017 98.0307 439.608 97.5843 439.165C94.7008 436.258 93.816 432.197 95.5382 429.227C95.637 429.037 95.7507 428.854 95.8779 428.681C98.3744 425.276 103.778 424.976 107.973 428.018C108.475 428.38 108.946 428.785 109.379 429.227C112.286 432.157 113.171 436.242 111.425 439.165Z" fill="white"/>
<g opacity="0.21">
<path opacity="0.21" d="M115.25 377.636L104.111 325.598C103.88 324.498 103.277 323.51 102.403 322.802C101.53 322.094 100.439 321.709 99.3151 321.711H44.0695C43.3214 321.711 42.5835 321.883 41.9123 322.213C41.2411 322.542 40.6548 323.023 40.1985 323.615C39.746 324.196 39.4324 324.872 39.2817 325.592C39.1311 326.312 39.1474 327.058 39.3295 327.771L52.2462 380.425C52.4042 381.158 52.7431 381.841 53.2337 382.408C53.6777 382.97 54.2433 383.424 54.8872 383.736C55.5318 384.048 56.2389 384.209 56.9546 384.209H57.0811L110.533 383.569C111.254 383.56 111.963 383.392 112.61 383.077C113.258 382.762 113.828 382.306 114.278 381.744C114.732 381.173 115.055 380.509 115.223 379.798C115.39 379.089 115.4 378.35 115.25 377.636ZM42.9951 326.862C42.9548 326.706 42.9517 326.542 42.9864 326.384C43.0204 326.227 43.0915 326.079 43.1926 325.954C43.2914 325.821 43.4201 325.713 43.5687 325.639C43.7164 325.565 43.8799 325.526 44.0458 325.527H99.2836C99.5324 325.525 99.7742 325.609 99.9685 325.764C100.163 325.92 100.297 326.137 100.35 326.38L108.851 366.015C80.4575 338.602 77.2501 370.052 77.2501 370.052C61.2365 361.709 56.5991 370.842 55.264 376.854L42.9951 326.862Z" fill="white"/>
<path opacity="0.21" d="M58.9528 345.745C62.0259 344.789 63.4954 340.705 62.2234 336.628C60.9515 332.552 57.436 330.008 54.3233 330.964C51.2107 331.92 49.7807 336.004 51.0448 340.089C52.3088 344.173 55.9191 346.732 58.9528 345.745Z" fill="white"/>
<path opacity="0.21" d="M72.5093 344.818H90.6243C92.8838 344.818 95.1353 344.818 97.3948 344.818H97.7108C98.3451 344.837 98.9748 344.718 99.5594 344.471C99.9655 344.272 100.311 343.969 100.56 343.593C100.809 343.216 100.954 342.779 100.977 342.329C101.002 341.878 100.905 341.428 100.697 341.027C100.49 340.626 100.179 340.288 99.7964 340.047C99.3745 339.847 98.9882 339.58 98.6509 339.257C98.4376 338.904 98.2883 338.516 98.2085 338.111C97.7898 336.972 96.9847 336.016 95.9332 335.409C95.1645 334.891 94.2979 334.533 93.387 334.358C92.4761 334.182 91.5392 334.193 90.6322 334.39C89.7537 334.618 88.9519 335.076 88.3096 335.717C87.7408 336.27 87.6381 337.005 87.2036 337.629C86.9192 338.032 86.7375 337.906 86.3504 337.677C85.9633 337.448 85.75 337.297 85.434 337.131C84.8106 336.8 84.1636 336.516 83.4984 336.278C82.1436 335.775 80.6986 335.559 79.2561 335.646C76.7201 335.844 74.1921 337.361 73.2994 339.739C72.5022 339.752 71.7359 340.048 71.1379 340.575C70.5399 341.102 70.1496 341.826 70.0366 342.614C69.9853 342.918 70.0058 343.23 70.0943 343.524C70.1835 343.818 70.3392 344.088 70.5501 344.313C71.1205 344.712 71.8165 344.893 72.5093 344.818Z" fill="white"/>
<path opacity="0.21" d="M202.435 343.689L200.981 337.717C200.005 333.695 197.705 330.119 194.452 327.56C191.198 325.003 187.179 323.614 183.04 323.615H163.045C160.769 323.614 158.525 324.137 156.484 325.144C154.444 326.15 152.663 327.613 151.281 329.42C149.897 331.226 148.949 333.328 148.509 335.559C148.07 337.792 148.151 340.096 148.745 342.291L150.397 348.374C151.453 352.284 153.768 355.736 156.985 358.196C160.201 360.657 164.138 361.989 168.188 361.986H188.033C190.275 361.987 192.488 361.479 194.505 360.5C196.521 359.521 198.29 358.097 199.677 356.335C201.064 354.573 202.033 352.52 202.51 350.329C202.988 348.139 202.962 345.869 202.435 343.689ZM180.472 345.151L173.631 349.37C173.369 349.537 173.072 349.64 172.763 349.673C172.454 349.705 172.142 349.666 171.85 349.557C171.559 349.449 171.297 349.273 171.085 349.046C170.874 348.819 170.717 348.546 170.629 348.248L168.101 339.85C167.995 339.479 167.997 339.084 168.106 338.713C168.215 338.343 168.426 338.01 168.717 337.754C169.007 337.499 169.363 337.331 169.746 337.27C170.127 337.209 170.518 337.257 170.874 337.409L180.259 341.58C180.592 341.734 180.877 341.976 181.084 342.279C181.291 342.582 181.412 342.936 181.433 343.302C181.455 343.668 181.378 344.034 181.208 344.359C181.039 344.685 180.784 344.958 180.472 345.151Z" fill="white"/>
<path opacity="0.21" d="M197.948 397.409H163.021C161.424 397.406 159.861 396.939 158.523 396.066C157.185 395.193 156.13 393.949 155.485 392.488C155.238 391.942 155.134 391.343 155.181 390.747C155.228 390.15 155.425 389.575 155.754 389.074C156.082 388.574 156.531 388.165 157.061 387.884C157.589 387.604 158.18 387.462 158.779 387.471H195.91C194.171 390.418 195.04 394.51 197.948 397.409Z" fill="white"/>
<path opacity="0.21" d="M220.526 393.822C220.526 394.772 220.149 395.683 219.479 396.355C218.808 397.028 217.897 397.407 216.947 397.409H197.948C195.04 394.509 194.156 390.417 195.901 387.47H212.673C214.27 387.469 215.833 387.932 217.171 388.804C218.509 389.674 219.565 390.916 220.21 392.376C220.412 392.832 220.52 393.324 220.526 393.822Z" fill="#50D1C9"/>
<path opacity="0.21" d="M211.789 397.41C211.695 397.604 211.582 397.786 211.449 397.955C208.952 401.36 203.549 401.676 199.354 398.619C198.855 398.252 198.384 397.849 197.948 397.41C195.04 394.511 194.156 390.419 195.901 387.472C196 387.28 196.116 387.097 196.249 386.927C198.722 383.498 204.149 383.206 208.32 386.247C208.827 386.62 209.305 387.029 209.75 387.472C212.634 390.379 213.519 394.44 211.789 397.41Z" fill="white"/>
<path opacity="0.21" d="M229.312 415.753C229.303 416.705 228.919 417.615 228.243 418.285C227.567 418.955 226.653 419.331 225.701 419.331H87.2833C89.0529 416.361 88.1681 412.3 85.2609 409.393H221.459C223.059 409.393 224.624 409.859 225.962 410.735C227.301 411.611 228.355 412.857 228.996 414.323C229.199 414.773 229.306 415.26 229.312 415.753Z" fill="#50D1C9"/>
<path opacity="0.21" d="M87.2832 419.331H70.0294C68.4343 419.331 66.8733 418.868 65.5358 417.999C64.1983 417.129 63.1412 415.891 62.4926 414.433C62.2943 413.974 62.1869 413.481 62.1766 412.98C62.1766 412.028 62.5543 411.117 63.2274 410.444C63.8997 409.771 64.8121 409.393 65.7633 409.393H85.2608C88.168 412.3 89.0529 416.361 87.2832 419.331Z" fill="white"/>
<path opacity="0.21" d="M87.2823 419.334C87.201 419.53 87.0919 419.714 86.9584 419.879C84.4857 423.307 79.0583 423.608 74.887 420.566C74.3806 420.191 73.9027 419.778 73.4571 419.334C70.5736 416.434 69.6887 412.366 71.4189 409.395C71.5121 409.202 71.6259 409.018 71.7586 408.85C74.255 405.445 79.6587 405.129 83.8537 408.194C84.3506 408.56 84.8207 408.962 85.2599 409.395C88.1671 412.302 89.052 416.363 87.2823 419.334Z" fill="white"/>
<path opacity="0.21" d="M99.488 441.097H77.5415C75.9464 441.094 74.3869 440.63 73.0494 439.761C71.7127 438.892 70.6549 437.655 70.0047 436.199C69.8064 435.748 69.699 435.262 69.6887 434.769C69.6927 433.813 70.0743 432.897 70.7505 432.221C71.4268 431.545 72.3432 431.163 73.2991 431.159H97.4498C95.7197 434.129 96.6045 438.198 99.488 441.097Z" fill="#50D1C9"/>
<path opacity="0.21" d="M236.832 437.534C236.831 438.004 236.737 438.469 236.556 438.902C236.375 439.335 236.111 439.729 235.778 440.06C235.445 440.391 235.05 440.653 234.615 440.831C234.181 441.008 233.715 441.099 233.245 441.097H99.4882C96.6047 438.198 95.7199 434.129 97.45 431.159H228.971C230.571 431.159 232.136 431.625 233.474 432.5C234.813 433.376 235.867 434.623 236.508 436.088C236.714 436.543 236.823 437.036 236.832 437.534Z" fill="white"/>
<path opacity="0.21" d="M113.337 441.099C113.238 441.291 113.122 441.473 112.99 441.644C110.517 445.072 105.089 445.373 100.918 442.331C100.412 441.956 99.9338 441.544 99.4882 441.099C96.6047 438.199 95.7199 434.131 97.45 431.16C97.5432 430.967 97.657 430.784 97.7897 430.615C100.286 427.21 105.69 426.918 109.885 429.96C110.382 430.325 110.852 430.727 111.291 431.16C114.198 434.068 115.083 438.152 113.337 441.099Z" fill="white"/>
</g>
</svg>
